<?xml version="1.0" encoding="UTF-8" standalone="no"?>
<!DOCTYPE svg PUBLIC "-//W3C//DTD SVG 1.1//EN" "http://www.w3.org/Graphics/SVG/1.1/DTD/svg11.dtd">
<svg width="100%" height="100%" viewBox="0 0 213 213" version="1.1" xmlns="http://www.w3.org/2000/svg" xmlns:xlink="http://www.w3.org/1999/xlink" xml:space="preserve" xmlns:serif="http://www.serif.com/" style="fill-rule:evenodd;clip-rule:evenodd;stroke-linecap:round;stroke-linejoin:round;stroke-miterlimit:1.5;">
    <g transform="matrix(1,0,0,1,-455.523,-20.1175)">
        <g transform="matrix(1,0,0,1,416.091,12.3789)">
            <path d="M66.535,153.724L68.341,153.724L72.653,163.636L70.189,163.636L69.335,161.536L65.485,161.536L64.659,163.636L62.251,163.636L66.535,153.724ZM67.375,156.608L66.171,159.688L68.593,159.688L67.375,156.608Z" style="fill:rgb(25,18,51);fill-rule:nonzero;"/>
            <path d="M82.089,156.3C81.875,156.038 81.611,155.838 81.298,155.698C80.986,155.558 80.624,155.488 80.213,155.488C79.803,155.488 79.422,155.567 79.072,155.726C78.722,155.884 78.419,156.106 78.162,156.391C77.906,156.675 77.705,157.014 77.56,157.406C77.416,157.798 77.343,158.222 77.343,158.68C77.343,159.146 77.416,159.573 77.56,159.961C77.705,160.348 77.903,160.684 78.155,160.969C78.407,161.253 78.704,161.475 79.044,161.634C79.385,161.792 79.751,161.872 80.143,161.872C80.591,161.872 80.988,161.778 81.333,161.592C81.679,161.405 81.963,161.144 82.187,160.808L84.007,162.166C83.587,162.754 83.055,163.188 82.411,163.468C81.767,163.748 81.105,163.888 80.423,163.888C79.649,163.888 78.935,163.766 78.281,163.524C77.628,163.281 77.063,162.933 76.587,162.481C76.111,162.028 75.74,161.48 75.474,160.836C75.208,160.192 75.075,159.473 75.075,158.68C75.075,157.886 75.208,157.168 75.474,156.524C75.74,155.88 76.111,155.331 76.587,154.879C77.063,154.426 77.628,154.078 78.281,153.836C78.935,153.593 79.649,153.472 80.423,153.472C80.703,153.472 80.995,153.497 81.298,153.549C81.602,153.6 81.9,153.682 82.194,153.794C82.488,153.906 82.771,154.055 83.041,154.242C83.312,154.428 83.555,154.657 83.769,154.928L82.089,156.3Z" style="fill:rgb(25,18,51);fill-rule:nonzero;"/>
            <path d="M93.639,156.3C93.425,156.038 93.161,155.838 92.848,155.698C92.536,155.558 92.174,155.488 91.763,155.488C91.353,155.488 90.972,155.567 90.622,155.726C90.272,155.884 89.969,156.106 89.712,156.391C89.456,156.675 89.255,157.014 89.11,157.406C88.966,157.798 88.893,158.222 88.893,158.68C88.893,159.146 88.966,159.573 89.11,159.961C89.255,160.348 89.453,160.684 89.705,160.969C89.957,161.253 90.254,161.475 90.594,161.634C90.935,161.792 91.301,161.872 91.693,161.872C92.141,161.872 92.538,161.778 92.883,161.592C93.229,161.405 93.513,161.144 93.737,160.808L95.557,162.166C95.137,162.754 94.605,163.188 93.961,163.468C93.317,163.748 92.655,163.888 91.973,163.888C91.199,163.888 90.485,163.766 89.831,163.524C89.178,163.281 88.613,162.933 88.137,162.481C87.661,162.028 87.29,161.48 87.024,160.836C86.758,160.192 86.625,159.473 86.625,158.68C86.625,157.886 86.758,157.168 87.024,156.524C87.29,155.88 87.661,155.331 88.137,154.879C88.613,154.426 89.178,154.078 89.831,153.836C90.485,153.593 91.199,153.472 91.973,153.472C92.253,153.472 92.545,153.497 92.848,153.549C93.152,153.6 93.45,153.682 93.744,153.794C94.038,153.906 94.321,154.055 94.591,154.242C94.862,154.428 95.105,154.657 95.319,154.928L93.639,156.3Z" style="fill:rgb(25,18,51);fill-rule:nonzero;"/>
            <path d="M98.175,158.68C98.175,157.886 98.308,157.168 98.574,156.524C98.84,155.88 99.211,155.331 99.687,154.879C100.163,154.426 100.728,154.078 101.381,153.836C102.035,153.593 102.749,153.472 103.523,153.472C104.298,153.472 105.012,153.593 105.665,153.836C106.319,154.078 106.883,154.426 107.359,154.879C107.835,155.331 108.206,155.88 108.472,156.524C108.738,157.168 108.871,157.886 108.871,158.68C108.871,159.473 108.738,160.192 108.472,160.836C108.206,161.48 107.835,162.028 107.359,162.481C106.883,162.933 106.319,163.281 105.665,163.524C105.012,163.766 104.298,163.888 103.523,163.888C102.749,163.888 102.035,163.766 101.381,163.524C100.728,163.281 100.163,162.933 99.687,162.481C99.211,162.028 98.84,161.48 98.574,160.836C98.308,160.192 98.175,159.473 98.175,158.68ZM100.443,158.68C100.443,159.146 100.516,159.573 100.66,159.961C100.805,160.348 101.013,160.684 101.283,160.969C101.554,161.253 101.878,161.475 102.256,161.634C102.634,161.792 103.057,161.872 103.523,161.872C103.99,161.872 104.412,161.792 104.79,161.634C105.168,161.475 105.493,161.253 105.763,160.969C106.034,160.684 106.242,160.348 106.386,159.961C106.531,159.573 106.603,159.146 106.603,158.68C106.603,158.222 106.531,157.798 106.386,157.406C106.242,157.014 106.034,156.675 105.763,156.391C105.493,156.106 105.168,155.884 104.79,155.726C104.412,155.567 103.99,155.488 103.523,155.488C103.057,155.488 102.634,155.567 102.256,155.726C101.878,155.884 101.554,156.106 101.283,156.391C101.013,156.675 100.805,157.014 100.66,157.406C100.516,157.798 100.443,158.222 100.443,158.68Z" style="fill:rgb(25,18,51);fill-rule:nonzero;"/>
            <path d="M112.315,153.724L115.619,153.724L117.901,160.192L117.929,160.192L120.225,153.724L123.515,153.724L123.515,163.636L121.331,163.636L121.331,156.034L121.303,156.034L118.699,163.636L117.033,163.636L114.527,156.034L114.499,156.034L114.499,163.636L112.315,163.636L112.315,153.724Z" style="fill:rgb(25,18,51);fill-rule:nonzero;"/>
            <path d="M127.491,153.724L130.795,153.724L133.077,160.192L133.105,160.192L135.401,153.724L138.691,153.724L138.691,163.636L136.507,163.636L136.507,156.034L136.479,156.034L133.875,163.636L132.209,163.636L129.703,156.034L129.675,156.034L129.675,163.636L127.491,163.636L127.491,153.724Z" style="fill:rgb(25,18,51);fill-rule:nonzero;"/>
            <path d="M142.135,158.68C142.135,157.886 142.268,157.168 142.534,156.524C142.8,155.88 143.171,155.331 143.647,154.879C144.123,154.426 144.688,154.078 145.341,153.836C145.995,153.593 146.709,153.472 147.483,153.472C148.258,153.472 148.972,153.593 149.625,153.836C150.279,154.078 150.843,154.426 151.319,154.879C151.795,155.331 152.166,155.88 152.432,156.524C152.698,157.168 152.831,157.886 152.831,158.68C152.831,159.473 152.698,160.192 152.432,160.836C152.166,161.48 151.795,162.028 151.319,162.481C150.843,162.933 150.279,163.281 149.625,163.524C148.972,163.766 148.258,163.888 147.483,163.888C146.709,163.888 145.995,163.766 145.341,163.524C144.688,163.281 144.123,162.933 143.647,162.481C143.171,162.028 142.8,161.48 142.534,160.836C142.268,160.192 142.135,159.473 142.135,158.68ZM144.403,158.68C144.403,159.146 144.476,159.573 144.62,159.961C144.765,160.348 144.973,160.684 145.243,160.969C145.514,161.253 145.838,161.475 146.216,161.634C146.594,161.792 147.017,161.872 147.483,161.872C147.95,161.872 148.372,161.792 148.75,161.634C149.128,161.475 149.453,161.253 149.723,160.969C149.994,160.684 150.202,160.348 150.346,159.961C150.491,159.573 150.563,159.146 150.563,158.68C150.563,158.222 150.491,157.798 150.346,157.406C150.202,157.014 149.994,156.675 149.723,156.391C149.453,156.106 149.128,155.884 148.75,155.726C148.372,155.567 147.95,155.488 147.483,155.488C147.017,155.488 146.594,155.567 146.216,155.726C145.838,155.884 145.514,156.106 145.243,156.391C144.973,156.675 144.765,157.014 144.62,157.406C144.476,157.798 144.403,158.222 144.403,158.68Z" style="fill:rgb(25,18,51);fill-rule:nonzero;"/>
            <path d="M156.275,153.724L159.551,153.724C160.345,153.724 161.098,153.812 161.812,153.99C162.526,154.167 163.149,154.454 163.681,154.851C164.213,155.247 164.636,155.763 164.948,156.398C165.261,157.032 165.417,157.802 165.417,158.708C165.417,159.51 165.266,160.217 164.962,160.829C164.659,161.44 164.251,161.953 163.737,162.369C163.224,162.784 162.631,163.099 161.959,163.314C161.287,163.528 160.583,163.636 159.845,163.636L156.275,163.636L156.275,153.724ZM158.459,161.62L159.593,161.62C160.097,161.62 160.566,161.568 161,161.466C161.434,161.363 161.81,161.193 162.127,160.955C162.445,160.717 162.694,160.404 162.876,160.017C163.058,159.629 163.149,159.156 163.149,158.596C163.149,158.11 163.058,157.688 162.876,157.329C162.694,156.969 162.449,156.673 162.141,156.44C161.833,156.206 161.472,156.031 161.056,155.915C160.641,155.798 160.205,155.74 159.747,155.74L158.459,155.74L158.459,161.62Z" style="fill:rgb(25,18,51);fill-rule:nonzero;"/>
            <path d="M172.123,153.724L173.929,153.724L178.241,163.636L175.777,163.636L174.923,161.536L171.073,161.536L170.247,163.636L167.839,163.636L172.123,153.724ZM172.963,156.608L171.759,159.688L174.181,159.688L172.963,156.608Z" style="fill:rgb(25,18,51);fill-rule:nonzero;"/>
            <path d="M181.825,155.656L178.997,155.656L178.997,153.724L186.837,153.724L186.837,155.656L184.009,155.656L184.009,163.636L181.825,163.636L181.825,155.656Z" style="fill:rgb(25,18,51);fill-rule:nonzero;"/>
            <rect x="189.875" y="153.724" width="2.184" height="9.912" style="fill:rgb(25,18,51);fill-rule:nonzero;"/>
            <path d="M195.475,158.68C195.475,157.886 195.608,157.168 195.874,156.524C196.14,155.88 196.511,155.331 196.987,154.879C197.463,154.426 198.028,154.078 198.681,153.836C199.335,153.593 200.049,153.472 200.823,153.472C201.598,153.472 202.312,153.593 202.965,153.836C203.619,154.078 204.183,154.426 204.659,154.879C205.135,155.331 205.506,155.88 205.772,156.524C206.038,157.168 206.171,157.886 206.171,158.68C206.171,159.473 206.038,160.192 205.772,160.836C205.506,161.48 205.135,162.028 204.659,162.481C204.183,162.933 203.619,163.281 202.965,163.524C202.312,163.766 201.598,163.888 200.823,163.888C200.049,163.888 199.335,163.766 198.681,163.524C198.028,163.281 197.463,162.933 196.987,162.481C196.511,162.028 196.14,161.48 195.874,160.836C195.608,160.192 195.475,159.473 195.475,158.68ZM197.743,158.68C197.743,159.146 197.816,159.573 197.96,159.961C198.105,160.348 198.313,160.684 198.583,160.969C198.854,161.253 199.178,161.475 199.556,161.634C199.934,161.792 200.357,161.872 200.823,161.872C201.29,161.872 201.712,161.792 202.09,161.634C202.468,161.475 202.793,161.253 203.063,160.969C203.334,160.684 203.542,160.348 203.686,159.961C203.831,159.573 203.903,159.146 203.903,158.68C203.903,158.222 203.831,157.798 203.686,157.406C203.542,157.014 203.334,156.675 203.063,156.391C202.793,156.106 202.468,155.884 202.09,155.726C201.712,155.567 201.29,155.488 200.823,155.488C200.357,155.488 199.934,155.567 199.556,155.726C199.178,155.884 198.854,156.106 198.583,156.391C198.313,156.675 198.105,157.014 197.96,157.406C197.816,157.798 197.743,158.222 197.743,158.68Z" style="fill:rgb(25,18,51);fill-rule:nonzero;"/>
            <path d="M209.615,153.724L212.583,153.724L216.797,160.612L216.825,160.612L216.825,153.724L219.009,153.724L219.009,163.636L216.153,163.636L211.827,156.58L211.799,156.58L211.799,163.636L209.615,163.636L209.615,153.724Z" style="fill:rgb(25,18,51);fill-rule:nonzero;"/>
            <path d="M227.885,156.146C227.708,155.922 227.468,155.756 227.164,155.649C226.861,155.541 226.574,155.488 226.303,155.488C226.145,155.488 225.981,155.506 225.813,155.544C225.645,155.581 225.487,155.639 225.337,155.719C225.188,155.798 225.067,155.903 224.973,156.034C224.88,156.164 224.833,156.323 224.833,156.51C224.833,156.808 224.945,157.037 225.169,157.196C225.393,157.354 225.676,157.49 226.016,157.602C226.357,157.714 226.723,157.826 227.115,157.938C227.507,158.05 227.874,158.208 228.214,158.414C228.555,158.619 228.837,158.894 229.061,159.24C229.285,159.585 229.397,160.047 229.397,160.626C229.397,161.176 229.295,161.657 229.089,162.068C228.884,162.478 228.606,162.819 228.256,163.09C227.906,163.36 227.5,163.561 227.038,163.692C226.576,163.822 226.089,163.888 225.575,163.888C224.931,163.888 224.334,163.79 223.783,163.594C223.233,163.398 222.719,163.08 222.243,162.642L223.797,160.934C224.021,161.232 224.304,161.463 224.644,161.627C224.985,161.79 225.337,161.872 225.701,161.872C225.879,161.872 226.058,161.851 226.24,161.809C226.422,161.767 226.586,161.704 226.73,161.62C226.875,161.536 226.992,161.428 227.08,161.298C227.169,161.167 227.213,161.013 227.213,160.836C227.213,160.537 227.099,160.301 226.87,160.129C226.642,159.956 226.355,159.809 226.009,159.688C225.664,159.566 225.291,159.445 224.889,159.324C224.488,159.202 224.115,159.039 223.769,158.834C223.424,158.628 223.137,158.358 222.908,158.022C222.68,157.686 222.565,157.242 222.565,156.692C222.565,156.16 222.67,155.693 222.88,155.292C223.09,154.89 223.37,154.554 223.72,154.284C224.07,154.013 224.474,153.81 224.931,153.675C225.389,153.539 225.86,153.472 226.345,153.472C226.905,153.472 227.447,153.551 227.969,153.71C228.492,153.868 228.963,154.134 229.383,154.508L227.885,156.146Z" style="fill:rgb(25,18,51);fill-rule:nonzero;"/>
        </g>
        <g transform="matrix(1,0,0,1,36.1187,23.0246)">
            <g transform="matrix(1,0,0,1,0,-9)">
                <path d="M505.087,129.714L505.087,57.779L546.901,57.779L546.901,129.018" style="fill:none;stroke:rgb(25,18,51);stroke-width:4px;"/>
            </g>
            <g transform="matrix(1,0,0,1,0,-9)">
                <path d="M551.756,69.657L566.735,69.657L566.735,129.205" style="fill:none;stroke:rgb(25,18,51);stroke-width:4px;"/>
            </g>
            <g transform="matrix(-1,0,0,1,1051.59,-9)">
                <path d="M551.756,69.657L566.735,69.657L566.735,129.205" style="fill:none;stroke:rgb(25,18,51);stroke-width:4px;"/>
            </g>
        </g>
        <g transform="matrix(1.1349,0,0,1.1349,427.094,-13.8492)">
            <circle cx="118.795" cy="123.674" r="91.983" style="fill:none;stroke:rgb(25,18,51);stroke-width:3.52px;"/>
        </g>
    </g>
</svg>
