<?xml version="1.0" encoding="UTF-8" standalone="no"?>
<!DOCTYPE svg PUBLIC "-//W3C//DTD SVG 1.1//EN" "http://www.w3.org/Graphics/SVG/1.1/DTD/svg11.dtd">
<svg width="100%" height="100%" viewBox="0 0 213 213" version="1.1" xmlns="http://www.w3.org/2000/svg" xmlns:xlink="http://www.w3.org/1999/xlink" xml:space="preserve" xmlns:serif="http://www.serif.com/" style="fill-rule:evenodd;clip-rule:evenodd;stroke-linecap:round;stroke-linejoin:round;stroke-miterlimit:1.5;">
    <g transform="matrix(1,0,0,1,-40.7283,-373.78)">
        <g transform="matrix(1,0,0,1,48.8451,375.387)">
            <g transform="matrix(1,0,0,1,0.675554,0.225185)">
                <circle cx="97.599" cy="86.45" r="24.32" style="fill:none;stroke:white;stroke-width:4px;"/>
            </g>
            <g transform="matrix(0.979837,0.199801,-0.199801,0.979837,19.6872,-18.0041)">
                <path d="M98.873,62.77L101.601,50.094L98.873,62.77Z" style="fill:none;stroke:white;stroke-width:4px;"/>
            </g>
            <g transform="matrix(0.983905,0.20063,-0.20063,0.983905,-8.44156,43.1509)">
                <path d="M100.355,55.88L102.937,43.887L100.355,55.88Z" style="fill:none;stroke:white;stroke-width:3.98px;"/>
            </g>
            <path d="M96.817,126.364L97.216,110.837" style="fill:none;stroke:white;stroke-width:4px;"/>
            <g transform="matrix(0.899254,0.437428,-0.437428,0.899254,45.9669,-35.4849)">
                <path d="M97.071,118.343C115.619,116.159 123.062,57.141 97.406,54.977" style="fill:none;stroke:white;stroke-width:4px;"/>
            </g>
            <g transform="matrix(0.771663,0,0,0.771663,22.3472,20.4079)">
                <path d="M81.297,139.832L112.454,139.832" style="fill:none;stroke:white;stroke-width:5.18px;"/>
            </g>
        </g>
        <g transform="matrix(1,0,0,1,22.1629,366.042)">
            <path d="M63.273,153.724L66.549,153.724C67.343,153.724 68.096,153.812 68.81,153.99C69.524,154.167 70.147,154.454 70.679,154.851C71.211,155.247 71.634,155.763 71.946,156.398C72.259,157.032 72.415,157.802 72.415,158.708C72.415,159.51 72.264,160.217 71.96,160.829C71.657,161.44 71.249,161.953 70.735,162.369C70.222,162.784 69.629,163.099 68.957,163.314C68.285,163.528 67.581,163.636 66.843,163.636L63.273,163.636L63.273,153.724ZM65.457,161.62L66.591,161.62C67.095,161.62 67.564,161.568 67.998,161.466C68.432,161.363 68.808,161.193 69.125,160.955C69.443,160.717 69.692,160.404 69.874,160.017C70.056,159.629 70.147,159.156 70.147,158.596C70.147,158.11 70.056,157.688 69.874,157.329C69.692,156.969 69.447,156.673 69.139,156.44C68.831,156.206 68.47,156.031 68.054,155.915C67.639,155.798 67.203,155.74 66.745,155.74L65.457,155.74L65.457,161.62Z" style="fill:white;fill-rule:nonzero;"/>
            <path d="M75.943,153.724L82.677,153.724L82.677,155.74L78.127,155.74L78.127,157.588L82.425,157.588L82.425,159.604L78.127,159.604L78.127,161.62L82.929,161.62L82.929,163.636L75.943,163.636L75.943,153.724Z" style="fill:white;fill-rule:nonzero;"/>
            <path d="M91.539,156.146C91.362,155.922 91.122,155.756 90.818,155.649C90.515,155.541 90.228,155.488 89.957,155.488C89.799,155.488 89.635,155.506 89.467,155.544C89.299,155.581 89.141,155.639 88.991,155.719C88.842,155.798 88.721,155.903 88.627,156.034C88.534,156.164 88.487,156.323 88.487,156.51C88.487,156.808 88.599,157.037 88.823,157.196C89.047,157.354 89.33,157.49 89.67,157.602C90.011,157.714 90.377,157.826 90.769,157.938C91.161,158.05 91.528,158.208 91.868,158.414C92.209,158.619 92.491,158.894 92.715,159.24C92.939,159.585 93.051,160.047 93.051,160.626C93.051,161.176 92.949,161.657 92.743,162.068C92.538,162.478 92.26,162.819 91.91,163.09C91.56,163.36 91.154,163.561 90.692,163.692C90.23,163.822 89.743,163.888 89.229,163.888C88.585,163.888 87.988,163.79 87.437,163.594C86.887,163.398 86.373,163.08 85.897,162.642L87.451,160.934C87.675,161.232 87.958,161.463 88.298,161.627C88.639,161.79 88.991,161.872 89.355,161.872C89.533,161.872 89.712,161.851 89.894,161.809C90.076,161.767 90.24,161.704 90.384,161.62C90.529,161.536 90.646,161.428 90.734,161.298C90.823,161.167 90.867,161.013 90.867,160.836C90.867,160.537 90.753,160.301 90.524,160.129C90.296,159.956 90.009,159.809 89.663,159.688C89.318,159.566 88.945,159.445 88.543,159.324C88.142,159.202 87.769,159.039 87.423,158.834C87.078,158.628 86.791,158.358 86.562,158.022C86.334,157.686 86.219,157.242 86.219,156.692C86.219,156.16 86.324,155.693 86.534,155.292C86.744,154.89 87.024,154.554 87.374,154.284C87.724,154.013 88.128,153.81 88.585,153.675C89.043,153.539 89.514,153.472 89.999,153.472C90.559,153.472 91.101,153.551 91.623,153.71C92.146,153.868 92.617,154.134 93.037,154.508L91.539,156.146Z" style="fill:white;fill-rule:nonzero;"/>
            <path d="M98.553,155.656L95.725,155.656L95.725,153.724L103.565,153.724L103.565,155.656L100.737,155.656L100.737,163.636L98.553,163.636L98.553,155.656Z" style="fill:white;fill-rule:nonzero;"/>
            <rect x="106.603" y="153.724" width="2.184" height="9.912" style="fill:white;fill-rule:nonzero;"/>
            <path d="M112.735,153.724L115.703,153.724L119.917,160.612L119.945,160.612L119.945,153.724L122.129,153.724L122.129,163.636L119.273,163.636L114.947,156.58L114.919,156.58L114.919,163.636L112.735,163.636L112.735,153.724Z" style="fill:white;fill-rule:nonzero;"/>
            <path d="M129.367,153.724L131.173,153.724L135.485,163.636L133.021,163.636L132.167,161.536L128.317,161.536L127.491,163.636L125.083,163.636L129.367,153.724ZM130.207,156.608L129.003,159.688L131.425,159.688L130.207,156.608Z" style="fill:white;fill-rule:nonzero;"/>
            <path d="M139.069,155.656L136.241,155.656L136.241,153.724L144.081,153.724L144.081,155.656L141.253,155.656L141.253,163.636L139.069,163.636L139.069,155.656Z" style="fill:white;fill-rule:nonzero;"/>
            <rect x="147.119" y="153.724" width="2.184" height="9.912" style="fill:white;fill-rule:nonzero;"/>
            <path d="M152.719,158.68C152.719,157.886 152.852,157.168 153.118,156.524C153.384,155.88 153.755,155.331 154.231,154.879C154.707,154.426 155.272,154.078 155.925,153.836C156.579,153.593 157.293,153.472 158.067,153.472C158.842,153.472 159.556,153.593 160.209,153.836C160.863,154.078 161.427,154.426 161.903,154.879C162.379,155.331 162.75,155.88 163.016,156.524C163.282,157.168 163.415,157.886 163.415,158.68C163.415,159.473 163.282,160.192 163.016,160.836C162.75,161.48 162.379,162.028 161.903,162.481C161.427,162.933 160.863,163.281 160.209,163.524C159.556,163.766 158.842,163.888 158.067,163.888C157.293,163.888 156.579,163.766 155.925,163.524C155.272,163.281 154.707,162.933 154.231,162.481C153.755,162.028 153.384,161.48 153.118,160.836C152.852,160.192 152.719,159.473 152.719,158.68ZM154.987,158.68C154.987,159.146 155.06,159.573 155.204,159.961C155.349,160.348 155.557,160.684 155.827,160.969C156.098,161.253 156.422,161.475 156.8,161.634C157.178,161.792 157.601,161.872 158.067,161.872C158.534,161.872 158.956,161.792 159.334,161.634C159.712,161.475 160.037,161.253 160.307,160.969C160.578,160.684 160.786,160.348 160.93,159.961C161.075,159.573 161.147,159.146 161.147,158.68C161.147,158.222 161.075,157.798 160.93,157.406C160.786,157.014 160.578,156.675 160.307,156.391C160.037,156.106 159.712,155.884 159.334,155.726C158.956,155.567 158.534,155.488 158.067,155.488C157.601,155.488 157.178,155.567 156.8,155.726C156.422,155.884 156.098,156.106 155.827,156.391C155.557,156.675 155.349,157.014 155.204,157.406C155.06,157.798 154.987,158.222 154.987,158.68Z" style="fill:white;fill-rule:nonzero;"/>
            <path d="M166.859,153.724L169.827,153.724L174.041,160.612L174.069,160.612L174.069,153.724L176.253,153.724L176.253,163.636L173.397,163.636L169.071,156.58L169.043,156.58L169.043,163.636L166.859,163.636L166.859,153.724Z" style="fill:white;fill-rule:nonzero;"/>
            <path d="M185.129,156.146C184.952,155.922 184.712,155.756 184.408,155.649C184.105,155.541 183.818,155.488 183.547,155.488C183.389,155.488 183.225,155.506 183.057,155.544C182.889,155.581 182.731,155.639 182.581,155.719C182.432,155.798 182.311,155.903 182.217,156.034C182.124,156.164 182.077,156.323 182.077,156.51C182.077,156.808 182.189,157.037 182.413,157.196C182.637,157.354 182.92,157.49 183.26,157.602C183.601,157.714 183.967,157.826 184.359,157.938C184.751,158.05 185.118,158.208 185.458,158.414C185.799,158.619 186.081,158.894 186.305,159.24C186.529,159.585 186.641,160.047 186.641,160.626C186.641,161.176 186.539,161.657 186.333,162.068C186.128,162.478 185.85,162.819 185.5,163.09C185.15,163.36 184.744,163.561 184.282,163.692C183.82,163.822 183.333,163.888 182.819,163.888C182.175,163.888 181.578,163.79 181.027,163.594C180.477,163.398 179.963,163.08 179.487,162.642L181.041,160.934C181.265,161.232 181.548,161.463 181.888,161.627C182.229,161.79 182.581,161.872 182.945,161.872C183.123,161.872 183.302,161.851 183.484,161.809C183.666,161.767 183.83,161.704 183.974,161.62C184.119,161.536 184.236,161.428 184.324,161.298C184.413,161.167 184.457,161.013 184.457,160.836C184.457,160.537 184.343,160.301 184.114,160.129C183.886,159.956 183.599,159.809 183.253,159.688C182.908,159.566 182.535,159.445 182.133,159.324C181.732,159.202 181.359,159.039 181.013,158.834C180.668,158.628 180.381,158.358 180.152,158.022C179.924,157.686 179.809,157.242 179.809,156.692C179.809,156.16 179.914,155.693 180.124,155.292C180.334,154.89 180.614,154.554 180.964,154.284C181.314,154.013 181.718,153.81 182.175,153.675C182.633,153.539 183.104,153.472 183.589,153.472C184.149,153.472 184.691,153.551 185.213,153.71C185.736,153.868 186.207,154.134 186.627,154.508L185.129,156.146Z" style="fill:white;fill-rule:nonzero;"/>
        </g>
        <g transform="matrix(1.1349,0,0,1.1349,12.2988,339.814)">
            <circle cx="118.795" cy="123.674" r="91.983" style="fill:none;stroke:white;stroke-width:3.52px;"/>
        </g>
    </g>
</svg>
