<?xml version="1.0" encoding="UTF-8" standalone="no"?>
<!DOCTYPE svg PUBLIC "-//W3C//DTD SVG 1.1//EN" "http://www.w3.org/Graphics/SVG/1.1/DTD/svg11.dtd">
<svg width="100%" height="100%" viewBox="0 0 213 213" version="1.1" xmlns="http://www.w3.org/2000/svg" xmlns:xlink="http://www.w3.org/1999/xlink" xml:space="preserve" xmlns:serif="http://www.serif.com/" style="fill-rule:evenodd;clip-rule:evenodd;stroke-linecap:round;stroke-linejoin:round;stroke-miterlimit:1.5;">
    <g transform="matrix(1,0,0,1,-264.985,-373.78)">
        <g transform="matrix(1,0,0,1,250.843,366.042)">
            <path d="M63.357,153.724L70.091,153.724L70.091,155.74L65.541,155.74L65.541,157.588L69.839,157.588L69.839,159.604L65.541,159.604L65.541,161.62L70.343,161.62L70.343,163.636L63.357,163.636L63.357,153.724Z" style="fill:white;fill-rule:nonzero;"/>
            <path d="M76.517,158.456L73.241,153.724L75.985,153.724L78.099,157.196L80.129,153.724L82.775,153.724L79.569,158.414L83.153,163.636L80.409,163.636L77.987,159.646L75.635,163.636L73.045,163.636L76.517,158.456Z" style="fill:white;fill-rule:nonzero;"/>
            <path d="M86.121,153.724L89.803,153.724C90.317,153.724 90.802,153.77 91.259,153.864C91.717,153.957 92.116,154.118 92.456,154.347C92.797,154.575 93.068,154.883 93.268,155.271C93.469,155.658 93.569,156.146 93.569,156.734C93.569,157.312 93.476,157.798 93.289,158.19C93.103,158.582 92.846,158.894 92.519,159.128C92.193,159.361 91.805,159.527 91.357,159.625C90.909,159.723 90.424,159.772 89.901,159.772L88.305,159.772L88.305,163.636L86.121,163.636L86.121,153.724ZM88.305,157.924L89.761,157.924C89.957,157.924 90.146,157.905 90.328,157.868C90.51,157.83 90.674,157.767 90.818,157.679C90.963,157.59 91.08,157.469 91.168,157.315C91.257,157.161 91.301,156.967 91.301,156.734C91.301,156.482 91.243,156.279 91.126,156.125C91.01,155.971 90.86,155.852 90.678,155.768C90.496,155.684 90.293,155.63 90.069,155.607C89.845,155.583 89.631,155.572 89.425,155.572L88.305,155.572L88.305,157.924Z" style="fill:white;fill-rule:nonzero;"/>
            <path d="M96.985,153.724L103.719,153.724L103.719,155.74L99.169,155.74L99.169,157.588L103.467,157.588L103.467,159.604L99.169,159.604L99.169,161.62L103.971,161.62L103.971,163.636L96.985,163.636L96.985,153.724Z" style="fill:white;fill-rule:nonzero;"/>
            <path d="M107.681,153.724L111.517,153.724C112.021,153.724 112.5,153.773 112.952,153.871C113.405,153.969 113.802,154.132 114.142,154.361C114.483,154.589 114.754,154.897 114.954,155.285C115.155,155.672 115.255,156.155 115.255,156.734C115.255,157.434 115.073,158.029 114.709,158.519C114.345,159.009 113.813,159.319 113.113,159.45L115.633,163.636L113.015,163.636L110.943,159.674L109.865,159.674L109.865,163.636L107.681,163.636L107.681,153.724ZM109.865,157.826L111.153,157.826C111.349,157.826 111.557,157.819 111.776,157.805C111.996,157.791 112.194,157.749 112.371,157.679C112.549,157.609 112.696,157.499 112.812,157.35C112.929,157.2 112.987,156.99 112.987,156.72C112.987,156.468 112.936,156.267 112.833,156.118C112.731,155.968 112.6,155.854 112.441,155.775C112.283,155.695 112.101,155.642 111.895,155.614C111.69,155.586 111.489,155.572 111.293,155.572L109.865,155.572L109.865,157.826Z" style="fill:white;fill-rule:nonzero;"/>
            <rect x="118.685" y="153.724" width="2.184" height="9.912" style="fill:white;fill-rule:nonzero;"/>
            <path d="M124.901,153.724L131.635,153.724L131.635,155.74L127.085,155.74L127.085,157.588L131.383,157.588L131.383,159.604L127.085,159.604L127.085,161.62L131.887,161.62L131.887,163.636L124.901,163.636L124.901,153.724Z" style="fill:white;fill-rule:nonzero;"/>
            <path d="M135.597,153.724L138.565,153.724L142.779,160.612L142.807,160.612L142.807,153.724L144.991,153.724L144.991,163.636L142.135,163.636L137.809,156.58L137.781,156.58L137.781,163.636L135.597,163.636L135.597,153.724Z" style="fill:white;fill-rule:nonzero;"/>
            <path d="M155.449,156.3C155.235,156.038 154.971,155.838 154.658,155.698C154.346,155.558 153.984,155.488 153.573,155.488C153.163,155.488 152.782,155.567 152.432,155.726C152.082,155.884 151.779,156.106 151.522,156.391C151.266,156.675 151.065,157.014 150.92,157.406C150.776,157.798 150.703,158.222 150.703,158.68C150.703,159.146 150.776,159.573 150.92,159.961C151.065,160.348 151.263,160.684 151.515,160.969C151.767,161.253 152.064,161.475 152.404,161.634C152.745,161.792 153.111,161.872 153.503,161.872C153.951,161.872 154.348,161.778 154.693,161.592C155.039,161.405 155.323,161.144 155.547,160.808L157.367,162.166C156.947,162.754 156.415,163.188 155.771,163.468C155.127,163.748 154.465,163.888 153.783,163.888C153.009,163.888 152.295,163.766 151.641,163.524C150.988,163.281 150.423,162.933 149.947,162.481C149.471,162.028 149.1,161.48 148.834,160.836C148.568,160.192 148.435,159.473 148.435,158.68C148.435,157.886 148.568,157.168 148.834,156.524C149.1,155.88 149.471,155.331 149.947,154.879C150.423,154.426 150.988,154.078 151.641,153.836C152.295,153.593 153.009,153.472 153.783,153.472C154.063,153.472 154.355,153.497 154.658,153.549C154.962,153.6 155.26,153.682 155.554,153.794C155.848,153.906 156.131,154.055 156.401,154.242C156.672,154.428 156.915,154.657 157.129,154.928L155.449,156.3Z" style="fill:white;fill-rule:nonzero;"/>
            <path d="M160.601,153.724L167.335,153.724L167.335,155.74L162.785,155.74L162.785,157.588L167.083,157.588L167.083,159.604L162.785,159.604L162.785,161.62L167.587,161.62L167.587,163.636L160.601,163.636L160.601,153.724Z" style="fill:white;fill-rule:nonzero;"/>
            <path d="M176.197,156.146C176.02,155.922 175.78,155.756 175.476,155.649C175.173,155.541 174.886,155.488 174.615,155.488C174.457,155.488 174.293,155.506 174.125,155.544C173.957,155.581 173.799,155.639 173.649,155.719C173.5,155.798 173.379,155.903 173.285,156.034C173.192,156.164 173.145,156.323 173.145,156.51C173.145,156.808 173.257,157.037 173.481,157.196C173.705,157.354 173.988,157.49 174.328,157.602C174.669,157.714 175.035,157.826 175.427,157.938C175.819,158.05 176.186,158.208 176.526,158.414C176.867,158.619 177.149,158.894 177.373,159.24C177.597,159.585 177.709,160.047 177.709,160.626C177.709,161.176 177.607,161.657 177.401,162.068C177.196,162.478 176.918,162.819 176.568,163.09C176.218,163.36 175.812,163.561 175.35,163.692C174.888,163.822 174.401,163.888 173.887,163.888C173.243,163.888 172.646,163.79 172.095,163.594C171.545,163.398 171.031,163.08 170.555,162.642L172.109,160.934C172.333,161.232 172.616,161.463 172.956,161.627C173.297,161.79 173.649,161.872 174.013,161.872C174.191,161.872 174.37,161.851 174.552,161.809C174.734,161.767 174.898,161.704 175.042,161.62C175.187,161.536 175.304,161.428 175.392,161.298C175.481,161.167 175.525,161.013 175.525,160.836C175.525,160.537 175.411,160.301 175.182,160.129C174.954,159.956 174.667,159.809 174.321,159.688C173.976,159.566 173.603,159.445 173.201,159.324C172.8,159.202 172.427,159.039 172.081,158.834C171.736,158.628 171.449,158.358 171.22,158.022C170.992,157.686 170.877,157.242 170.877,156.692C170.877,156.16 170.982,155.693 171.192,155.292C171.402,154.89 171.682,154.554 172.032,154.284C172.382,154.013 172.786,153.81 173.243,153.675C173.701,153.539 174.172,153.472 174.657,153.472C175.217,153.472 175.759,153.551 176.281,153.71C176.804,153.868 177.275,154.134 177.695,154.508L176.197,156.146Z" style="fill:white;fill-rule:nonzero;"/>
        </g>
        <g transform="matrix(1,0,0,1,45.5894,366.791)">
            <path d="M253.986,119.941L290.992,82.934L303.121,95.063L329.613,68.572L360.739,99.698L378.7,81.737L397.589,100.626" style="fill:none;stroke:white;stroke-width:4px;"/>
        </g>
        <g transform="matrix(1.1349,0,0,1.1349,236.555,339.814)">
            <circle cx="118.795" cy="123.674" r="91.983" style="fill:none;stroke:white;stroke-width:3.52px;"/>
        </g>
    </g>
</svg>
