<?xml version="1.0" encoding="UTF-8" standalone="no"?><!DOCTYPE svg PUBLIC "-//W3C//DTD SVG 1.1//EN" "http://www.w3.org/Graphics/SVG/1.1/DTD/svg11.dtd"><svg width="100%" height="100%" viewBox="0 0 1904 620" version="1.1" xmlns="http://www.w3.org/2000/svg" xmlns:xlink="http://www.w3.org/1999/xlink" xml:space="preserve" xmlns:serif="http://www.serif.com/" style="fill-rule:evenodd;clip-rule:evenodd;stroke-linejoin:round;stroke-miterlimit:1.41421;"><g transform="matrix(7.35728,0,0,7.35728,-522.038,-4591.89)"><path d="M71.861,695.674c0.725,-1.667 1.758,-2.923 3.099,-3.769c1.341,-0.846 2.809,-1.269 4.404,-1.269c1.233,0 2.362,0.224 3.389,0.671c1.027,0.447 1.909,1.063 2.646,1.848c0.737,0.786 1.305,1.722 1.704,2.809c0.398,1.088 0.598,2.272 0.598,3.552c0,1.257 -0.206,2.423 -0.617,3.498c-0.41,1.075 -0.984,2.006 -1.721,2.791c-0.737,0.785 -1.619,1.401 -2.646,1.848c-1.027,0.447 -2.145,0.671 -3.353,0.671c-0.797,0 -1.576,-0.109 -2.338,-0.326c-0.761,-0.218 -1.468,-0.538 -2.12,-0.961c-0.652,-0.423 -1.244,-0.942 -1.776,-1.558c-0.532,-0.616 -0.954,-1.335 -1.269,-2.157l-0.108,0l0,4.495l-0.798,0l0,-27.402l0.798,0l0,15.259l0.108,0Zm15.042,3.842c0,-1.087 -0.175,-2.126 -0.525,-3.117c-0.351,-0.99 -0.852,-1.86 -1.505,-2.609c-0.652,-0.749 -1.443,-1.348 -2.374,-1.795c-0.93,-0.447 -1.975,-0.67 -3.135,-0.67c-1.111,0 -2.132,0.217 -3.063,0.652c-0.93,0.435 -1.733,1.021 -2.41,1.758c-0.676,0.737 -1.208,1.601 -1.595,2.592c-0.386,0.99 -0.58,2.042 -0.58,3.153c0,1.112 0.194,2.163 0.58,3.153c0.387,0.991 0.919,1.855 1.595,2.592c0.677,0.737 1.48,1.323 2.41,1.758c0.931,0.435 1.952,0.652 3.063,0.652c1.16,0 2.205,-0.217 3.135,-0.652c0.931,-0.435 1.722,-1.021 2.374,-1.758c0.653,-0.737 1.154,-1.601 1.505,-2.592c0.35,-0.99 0.525,-2.029 0.525,-3.117Z" style="fill:#eceff4;fill-rule:nonzero;"/><path d="M103.069,703.431c-0.266,0.773 -0.623,1.468 -1.07,2.084c-0.447,0.616 -0.96,1.13 -1.54,1.54c-0.58,0.411 -1.208,0.725 -1.885,0.943c-0.676,0.217 -1.377,0.326 -2.102,0.326c-1.16,0 -2.126,-0.205 -2.9,-0.616c-0.773,-0.411 -1.389,-0.955 -1.848,-1.631c-0.459,-0.677 -0.785,-1.438 -0.979,-2.284c-0.193,-0.845 -0.29,-1.703 -0.29,-2.573l0,-10.076l0.798,0l0,10.003c0,0.701 0.072,1.432 0.217,2.193c0.145,0.761 0.417,1.456 0.816,2.084c0.398,0.629 0.93,1.154 1.594,1.577c0.665,0.423 1.529,0.634 2.592,0.634c0.918,0 1.782,-0.187 2.592,-0.562c0.809,-0.374 1.51,-0.912 2.102,-1.612c0.592,-0.701 1.063,-1.553 1.413,-2.556c0.351,-1.003 0.526,-2.144 0.526,-3.425l0,-8.336l0.797,0l0,12.468c0,0.266 0.006,0.592 0.018,0.979c0.012,0.386 0.025,0.779 0.037,1.178c0.012,0.398 0.03,0.779 0.054,1.141c0.024,0.363 0.048,0.665 0.072,0.907l-0.797,0c-0.024,-0.242 -0.042,-0.544 -0.054,-0.907c-0.012,-0.362 -0.024,-0.755 -0.037,-1.178c-0.012,-0.422 -0.024,-0.833 -0.036,-1.232c-0.012,-0.399 -0.018,-0.755 -0.018,-1.069l-0.072,0Z" style="fill:#eceff4;fill-rule:nonzero;"/><path d="M119.741,693.391c-0.628,-0.653 -1.365,-1.16 -2.211,-1.522c-0.845,-0.363 -1.727,-0.544 -2.645,-0.544c-1.184,0 -2.248,0.223 -3.19,0.67c-0.942,0.447 -1.746,1.046 -2.41,1.795c-0.665,0.749 -1.178,1.619 -1.541,2.609c-0.362,0.991 -0.543,2.03 -0.543,3.117c0,1.088 0.181,2.127 0.543,3.117c0.363,0.991 0.876,1.855 1.541,2.592c0.664,0.737 1.468,1.323 2.41,1.758c0.942,0.435 2.006,0.652 3.19,0.652c0.918,0 1.818,-0.157 2.7,-0.471c0.882,-0.314 1.649,-0.785 2.301,-1.413l0.544,0.507c-0.725,0.725 -1.577,1.25 -2.555,1.577c-0.979,0.326 -1.976,0.489 -2.99,0.489c-1.233,0 -2.362,-0.218 -3.389,-0.652c-1.027,-0.435 -1.921,-1.04 -2.683,-1.813c-0.761,-0.773 -1.353,-1.703 -1.776,-2.791c-0.422,-1.087 -0.634,-2.271 -0.634,-3.552c0,-1.28 0.212,-2.464 0.634,-3.552c0.423,-1.087 1.015,-2.023 1.776,-2.809c0.762,-0.785 1.656,-1.401 2.683,-1.848c1.027,-0.447 2.156,-0.671 3.389,-0.671c1.063,0 2.072,0.194 3.026,0.58c0.955,0.387 1.77,0.93 2.447,1.631l-0.617,0.544Z" style="fill:#eceff4;fill-rule:nonzero;"/><path d="M123.547,698.828l8.627,-7.684l1.123,0l-8.807,7.72l9.822,8.953l-1.196,0l-9.569,-8.808l-0.036,0l0,8.808l-0.797,0l0,-27.402l0.797,0l0,18.413l0.036,0Z" style="fill:#eceff4;fill-rule:nonzero;"/><path d="M135.726,699.299c0,1.015 0.151,2.018 0.453,3.008c0.302,0.991 0.761,1.879 1.377,2.664c0.616,0.786 1.395,1.42 2.338,1.903c0.942,0.483 2.054,0.725 3.334,0.725c1.305,0 2.465,-0.26 3.48,-0.779c1.015,-0.52 1.897,-1.275 2.646,-2.266l0.58,0.508c-0.822,1.063 -1.782,1.873 -2.882,2.428c-1.099,0.556 -2.374,0.834 -3.824,0.834c-1.232,0 -2.356,-0.224 -3.37,-0.671c-1.015,-0.447 -1.891,-1.069 -2.628,-1.866c-0.737,-0.798 -1.305,-1.752 -1.704,-2.864c-0.398,-1.111 -0.598,-2.319 -0.598,-3.624c0,-1.257 0.206,-2.416 0.616,-3.48c0.411,-1.063 0.973,-1.981 1.686,-2.754c0.713,-0.774 1.552,-1.372 2.519,-1.794c0.966,-0.423 2.005,-0.635 3.117,-0.635c1.305,0 2.44,0.23 3.407,0.689c0.967,0.459 1.77,1.063 2.41,1.812c0.641,0.749 1.118,1.601 1.432,2.555c0.314,0.955 0.471,1.927 0.471,2.918l0,0.689l-14.86,0Zm14.099,-0.689c-0.024,-1.087 -0.211,-2.078 -0.562,-2.972c-0.35,-0.894 -0.827,-1.661 -1.431,-2.301c-0.605,-0.641 -1.329,-1.136 -2.175,-1.487c-0.846,-0.35 -1.788,-0.525 -2.827,-0.525c-1.257,0 -2.332,0.26 -3.226,0.779c-0.894,0.52 -1.625,1.16 -2.193,1.921c-0.568,0.761 -0.985,1.559 -1.25,2.392c-0.266,0.834 -0.399,1.565 -0.399,2.193l14.063,0Z" style="fill:#eceff4;fill-rule:nonzero;"/><path d="M161.17,707.853c-0.29,0.121 -0.628,0.217 -1.015,0.29c-0.387,0.072 -0.761,0.108 -1.124,0.108c-1.305,0 -2.241,-0.368 -2.809,-1.105c-0.568,-0.737 -0.851,-1.661 -0.851,-2.773l0,-12.541l-3.625,0l0,-0.688l3.588,0l0,-4.893l0.834,0l0,4.893l4.893,0l0,0.688l-4.893,0l0,12.541c0,1.136 0.278,1.951 0.834,2.447c0.555,0.495 1.292,0.743 2.211,0.743c0.676,0 1.292,-0.109 1.848,-0.326l0.109,0.616Z" style="fill:#eceff4;fill-rule:nonzero;"/><rect x="171.173" y="680.415" width="0.797" height="27.401" style="fill:#eceff4;fill-rule:nonzero;"/><path d="M177.951,684.873c-0.217,0 -0.41,-0.084 -0.58,-0.253c-0.169,-0.17 -0.253,-0.399 -0.253,-0.689c0,-0.266 0.084,-0.483 0.253,-0.653c0.17,-0.169 0.363,-0.253 0.58,-0.253c0.218,0 0.411,0.084 0.58,0.253c0.169,0.17 0.254,0.387 0.254,0.653c0,0.29 -0.091,0.519 -0.272,0.689c-0.181,0.169 -0.368,0.253 -0.562,0.253Zm-0.398,22.944l0,-16.673l0.797,0l0,16.673l-0.797,0Z" style="fill:#eceff4;fill-rule:nonzero;"/><path d="M193.319,703.467c0,0.749 -0.145,1.42 -0.435,2.012c-0.29,0.592 -0.682,1.093 -1.178,1.504c-0.495,0.411 -1.069,0.725 -1.721,0.942c-0.653,0.218 -1.353,0.326 -2.102,0.326c-1.233,0 -2.35,-0.235 -3.353,-0.706c-1.003,-0.472 -1.831,-1.166 -2.483,-2.084l0.652,-0.435c1.209,1.691 2.948,2.537 5.22,2.537c0.531,0 1.069,-0.085 1.613,-0.254c0.543,-0.169 1.039,-0.423 1.486,-0.761c0.447,-0.338 0.809,-0.761 1.087,-1.269c0.278,-0.507 0.417,-1.087 0.417,-1.739c0,-0.774 -0.175,-1.402 -0.526,-1.885c-0.35,-0.483 -0.791,-0.87 -1.323,-1.16c-0.531,-0.29 -1.117,-0.526 -1.757,-0.707c-0.641,-0.181 -1.239,-0.344 -1.795,-0.489c-0.604,-0.169 -1.172,-0.357 -1.703,-0.562c-0.532,-0.205 -0.997,-0.471 -1.396,-0.797c-0.398,-0.327 -0.712,-0.731 -0.942,-1.215c-0.229,-0.483 -0.344,-1.087 -0.344,-1.812c0,-0.725 0.145,-1.353 0.435,-1.885c0.29,-0.531 0.676,-0.972 1.16,-1.323c0.483,-0.35 1.033,-0.616 1.649,-0.797c0.616,-0.181 1.238,-0.272 1.866,-0.272c2.272,0 3.975,0.81 5.111,2.429l-0.689,0.398c-0.556,-0.725 -1.184,-1.262 -1.885,-1.613c-0.7,-0.35 -1.546,-0.525 -2.537,-0.525c-0.459,0 -0.942,0.06 -1.45,0.181c-0.507,0.121 -0.972,0.32 -1.395,0.598c-0.423,0.278 -0.773,0.647 -1.051,1.106c-0.278,0.459 -0.417,1.015 -0.417,1.667c0,0.725 0.115,1.305 0.344,1.74c0.23,0.435 0.55,0.785 0.961,1.051c0.411,0.266 0.906,0.489 1.486,0.67c0.58,0.182 1.22,0.357 1.921,0.526c0.652,0.169 1.287,0.368 1.903,0.598c0.616,0.23 1.16,0.513 1.631,0.852c0.471,0.338 0.846,0.761 1.124,1.268c0.277,0.508 0.416,1.136 0.416,1.885Z" style="fill:#eceff4;fill-rule:nonzero;"/><path d="M203.613,707.853c-0.29,0.121 -0.628,0.217 -1.015,0.29c-0.386,0.072 -0.761,0.108 -1.123,0.108c-1.305,0 -2.242,-0.368 -2.809,-1.105c-0.568,-0.737 -0.852,-1.661 -0.852,-2.773l0,-12.541l-3.625,0l0,-0.688l3.589,0l0,-4.893l0.833,0l0,4.893l4.893,0l0,0.688l-4.893,0l0,12.541c0,1.136 0.278,1.951 0.834,2.447c0.556,0.495 1.293,0.743 2.211,0.743c0.676,0 1.293,-0.109 1.848,-0.326l0.109,0.616Z" style="fill:#eceff4;fill-rule:nonzero;"/><path d="M229.093,707.817l-1.087,0l-5.437,-15.803l-0.072,0l-5.401,15.803l-1.087,0l-4.857,-16.673l0.834,0l4.567,15.875l0.072,0l5.364,-15.875l1.124,0l5.401,15.875l0.072,0l4.567,-15.875l0.834,0l-4.894,16.673Z" style="fill:#eceff4;fill-rule:nonzero;"/><path d="M237.502,684.873c-0.217,0 -0.41,-0.084 -0.58,-0.253c-0.169,-0.17 -0.253,-0.399 -0.253,-0.689c0,-0.266 0.084,-0.483 0.253,-0.653c0.17,-0.169 0.363,-0.253 0.58,-0.253c0.218,0 0.411,0.084 0.58,0.253c0.169,0.17 0.254,0.387 0.254,0.653c0,0.29 -0.091,0.519 -0.272,0.689c-0.181,0.169 -0.368,0.253 -0.562,0.253Zm-0.398,22.944l0,-16.673l0.797,0l0,16.673l-0.797,0Z" style="fill:#eceff4;fill-rule:nonzero;"/><path d="M249.934,707.853c-0.29,0.121 -0.628,0.217 -1.014,0.29c-0.387,0.072 -0.762,0.108 -1.124,0.108c-1.305,0 -2.241,-0.368 -2.809,-1.105c-0.568,-0.737 -0.852,-1.661 -0.852,-2.773l0,-12.541l-3.624,0l0,-0.688l3.588,0l0,-4.893l0.834,0l0,4.893l4.893,0l0,0.688l-4.893,0l0,12.541c0,1.136 0.277,1.951 0.833,2.447c0.556,0.495 1.293,0.743 2.211,0.743c0.677,0 1.293,-0.109 1.849,-0.326l0.108,0.616Z" style="fill:#eceff4;fill-rule:nonzero;"/><path d="M253.559,695.529c0.242,-0.773 0.586,-1.462 1.033,-2.066c0.447,-0.604 0.96,-1.117 1.54,-1.54c0.58,-0.423 1.209,-0.743 1.885,-0.961c0.677,-0.217 1.377,-0.326 2.102,-0.326c1.16,0 2.127,0.206 2.9,0.616c0.773,0.411 1.389,0.955 1.849,1.631c0.459,0.677 0.785,1.438 0.978,2.284c0.193,0.846 0.29,1.703 0.29,2.573l0,10.077l-0.797,0l0,-10.004c0,-0.677 -0.073,-1.402 -0.218,-2.175c-0.145,-0.773 -0.417,-1.474 -0.815,-2.102c-0.399,-0.628 -0.937,-1.154 -1.613,-1.577c-0.677,-0.423 -1.535,-0.634 -2.574,-0.634c-0.918,0 -1.782,0.187 -2.591,0.562c-0.81,0.374 -1.51,0.912 -2.102,1.613c-0.592,0.7 -1.064,1.552 -1.414,2.555c-0.35,1.003 -0.526,2.144 -0.526,3.425l0,8.337l-0.797,0l0,-27.402l0.797,0l0,15.114l0.073,0Z" style="fill:#eceff4;fill-rule:nonzero;"/><path d="M279.583,698.828l8.626,-7.684l1.124,0l-8.808,7.72l9.823,8.953l-1.196,0l-9.569,-8.808l-0.036,0l0,8.808l-0.798,0l0,-27.402l0.798,0l0,18.413l0.036,0Z" style="fill:#eceff4;fill-rule:nonzero;"/><path d="M293.465,684.873c-0.217,0 -0.411,-0.084 -0.58,-0.253c-0.169,-0.17 -0.254,-0.399 -0.254,-0.689c0,-0.266 0.085,-0.483 0.254,-0.653c0.169,-0.169 0.363,-0.253 0.58,-0.253c0.217,0 0.411,0.084 0.58,0.253c0.169,0.17 0.254,0.387 0.254,0.653c0,0.29 -0.091,0.519 -0.272,0.689c-0.181,0.169 -0.369,0.253 -0.562,0.253Zm-0.399,22.944l0,-16.673l0.798,0l0,16.673l-0.798,0Z" style="fill:#eceff4;fill-rule:nonzero;"/><path d="M313.944,680.415l0.797,0l0,27.402l-0.797,0l0,-4.495l-0.109,0c-0.725,1.643 -1.758,2.888 -3.099,3.733c-1.341,0.846 -2.809,1.269 -4.404,1.269c-1.208,0 -2.326,-0.224 -3.353,-0.671c-1.027,-0.447 -1.909,-1.063 -2.645,-1.848c-0.737,-0.785 -1.311,-1.716 -1.722,-2.791c-0.411,-1.075 -0.616,-2.241 -0.616,-3.498c0,-1.256 0.205,-2.428 0.616,-3.515c0.411,-1.088 0.985,-2.03 1.722,-2.828c0.736,-0.797 1.618,-1.419 2.645,-1.866c1.027,-0.447 2.145,-0.671 3.353,-0.671c1.595,0 3.063,0.423 4.404,1.269c1.341,0.846 2.374,2.102 3.099,3.769l0.109,0l0,-15.259Zm-15.151,19.101c0,1.088 0.175,2.127 0.526,3.117c0.35,0.991 0.851,1.855 1.504,2.592c0.652,0.737 1.444,1.323 2.374,1.758c0.93,0.435 1.975,0.652 3.135,0.652c1.112,0 2.133,-0.217 3.063,-0.652c0.93,-0.435 1.734,-1.021 2.41,-1.758c0.677,-0.737 1.208,-1.601 1.595,-2.592c0.387,-0.99 0.58,-2.041 0.58,-3.153c0,-1.111 -0.193,-2.163 -0.58,-3.153c-0.387,-0.991 -0.918,-1.855 -1.595,-2.592c-0.676,-0.737 -1.48,-1.323 -2.41,-1.758c-0.93,-0.435 -1.951,-0.652 -3.063,-0.652c-1.16,0 -2.205,0.223 -3.135,0.67c-0.93,0.447 -1.722,1.046 -2.374,1.795c-0.653,0.749 -1.154,1.619 -1.504,2.609c-0.351,0.991 -0.526,2.03 -0.526,3.117Z" style="fill:#eceff4;fill-rule:nonzero;"/><path d="M329.71,703.467c0,0.749 -0.145,1.42 -0.435,2.012c-0.29,0.592 -0.682,1.093 -1.178,1.504c-0.495,0.411 -1.069,0.725 -1.721,0.942c-0.653,0.218 -1.353,0.326 -2.102,0.326c-1.233,0 -2.35,-0.235 -3.353,-0.706c-1.003,-0.472 -1.831,-1.166 -2.483,-2.084l0.652,-0.435c1.209,1.691 2.948,2.537 5.22,2.537c0.531,0 1.069,-0.085 1.613,-0.254c0.543,-0.169 1.039,-0.423 1.486,-0.761c0.447,-0.338 0.809,-0.761 1.087,-1.269c0.278,-0.507 0.417,-1.087 0.417,-1.739c0,-0.774 -0.175,-1.402 -0.526,-1.885c-0.35,-0.483 -0.791,-0.87 -1.323,-1.16c-0.531,-0.29 -1.117,-0.526 -1.758,-0.707c-0.64,-0.181 -1.238,-0.344 -1.794,-0.489c-0.604,-0.169 -1.172,-0.357 -1.703,-0.562c-0.532,-0.205 -0.997,-0.471 -1.396,-0.797c-0.398,-0.327 -0.712,-0.731 -0.942,-1.215c-0.23,-0.483 -0.344,-1.087 -0.344,-1.812c0,-0.725 0.145,-1.353 0.435,-1.885c0.29,-0.531 0.676,-0.972 1.159,-1.323c0.484,-0.35 1.033,-0.616 1.65,-0.797c0.616,-0.181 1.238,-0.272 1.866,-0.272c2.272,0 3.975,0.81 5.111,2.429l-0.689,0.398c-0.556,-0.725 -1.184,-1.262 -1.885,-1.613c-0.7,-0.35 -1.546,-0.525 -2.537,-0.525c-0.459,0 -0.942,0.06 -1.45,0.181c-0.507,0.121 -0.972,0.32 -1.395,0.598c-0.423,0.278 -0.773,0.647 -1.051,1.106c-0.278,0.459 -0.417,1.015 -0.417,1.667c0,0.725 0.115,1.305 0.344,1.74c0.23,0.435 0.55,0.785 0.961,1.051c0.411,0.266 0.906,0.489 1.486,0.67c0.58,0.182 1.22,0.357 1.921,0.526c0.652,0.169 1.287,0.368 1.903,0.598c0.616,0.23 1.16,0.513 1.631,0.852c0.471,0.338 0.846,0.761 1.123,1.268c0.278,0.508 0.417,1.136 0.417,1.885Z" style="fill:#eceff4;fill-rule:nonzero;"/></g><path d="M1183.87,3.932c0.245,-1.01 -0.109,-2.072 -0.911,-2.734c-0.803,-0.661 -1.913,-0.806 -2.858,-0.372c-48.224,7.57 -401.83,5.816 -457.152,-0.788c-0.872,-0.148 -1.763,0.139 -2.385,0.769c-0.621,0.631 -0.897,1.525 -0.737,2.396c13.461,73.405 28.278,127.493 44.545,183.091c14.807,50.61 30.816,102.47 48.095,171.289c0.286,1.143 1.278,1.971 2.454,2.048c93.507,6.139 187.119,5.12 280.813,-1.491c1.177,-0.083 2.166,-0.918 2.445,-2.066c6.398,-26.289 76.307,-313.576 85.691,-352.142Zm-28.198,34.185c-62.889,103.902 -126.842,128.959 -191.887,132.254c-70.604,3.577 -142.494,-23.348 -215.708,-132.111m4.691,-0.001c-4.677,0.001 -8.961,2.612 -11.106,6.768c-2.144,4.155 -1.79,9.16 0.919,12.972c75.287,105.781 149.279,158.315 222.019,154.63c66.929,-3.391 132.798,-54.376 197.634,-155.266c2.467,-3.844 2.638,-8.729 0.447,-12.737c-2.191,-4.008 -6.396,-6.5 -10.964,-6.498c-75.787,0.017 -321.25,0.103 -398.949,0.131Z" style="fill:#fff;fill-opacity:0.901961;"/></svg>