<?xml version="1.0" encoding="UTF-8" standalone="no"?><!DOCTYPE svg PUBLIC "-//W3C//DTD SVG 1.1//EN" "http://www.w3.org/Graphics/SVG/1.1/DTD/svg11.dtd"><svg width="100%" height="100%" viewBox="0 0 465 364" version="1.1" xmlns="http://www.w3.org/2000/svg" xmlns:xlink="http://www.w3.org/1999/xlink" xml:space="preserve" xmlns:serif="http://www.serif.com/" style="fill-rule:evenodd;clip-rule:evenodd;stroke-linejoin:round;stroke-miterlimit:1.41421;"><path d="M464.088,3.932c0.245,-1.01 -0.109,-2.072 -0.912,-2.734c-0.803,-0.661 -1.913,-0.806 -2.858,-0.372c-48.223,7.57 -401.829,5.816 -457.151,-0.788c-0.873,-0.148 -1.763,0.139 -2.385,0.769c-0.622,0.631 -0.897,1.525 -0.737,2.396c13.46,73.405 28.278,127.493 44.545,183.091c14.807,50.61 30.815,102.47 48.094,171.289c0.287,1.143 1.278,1.971 2.454,2.048c93.508,6.139 187.12,5.12 280.813,-1.491c1.178,-0.083 2.167,-0.918 2.446,-2.066c6.397,-26.289 76.306,-313.576 85.691,-352.142Zm-28.199,34.185c-62.889,103.902 -126.842,128.959 -191.887,132.254c-70.603,3.577 -142.494,-23.348 -215.708,-132.111m4.691,-0.001c-4.676,0.001 -8.961,2.612 -11.105,6.768c-2.145,4.155 -1.79,9.16 0.919,12.972c75.286,105.781 149.278,158.315 222.019,154.63c66.928,-3.391 132.797,-54.376 197.633,-155.266c2.467,-3.844 2.639,-8.729 0.447,-12.737c-2.191,-4.008 -6.395,-6.5 -10.963,-6.498c-75.787,0.017 -321.251,0.103 -398.95,0.131Z" style="fill:#fff;"/></svg>