<?xml version="1.0" encoding="UTF-8" standalone="no"?>
<!DOCTYPE svg PUBLIC "-//W3C//DTD SVG 1.1//EN" "http://www.w3.org/Graphics/SVG/1.1/DTD/svg11.dtd">
<svg width="100%" height="100%" viewBox="0 0 535 88" version="1.1" xmlns="http://www.w3.org/2000/svg" xmlns:xlink="http://www.w3.org/1999/xlink" xml:space="preserve" xmlns:serif="http://www.serif.com/" style="fill-rule:evenodd;clip-rule:evenodd;stroke-linejoin:round;stroke-miterlimit:1.41421;">
    <g transform="matrix(1,0,0,1,-583.22,-610.055)">
        <g transform="matrix(1.76575,0,0,1.76575,484.644,-578.292)">
            <path d="M126.619,688.853C126.619,688.697 126.746,688.57 126.902,688.57C128.169,688.57 133.252,688.57 133.252,688.57C133.977,688.57 134.702,688.652 135.427,688.815C136.151,688.978 136.799,689.25 137.37,689.63C137.941,690.011 138.403,690.509 138.757,691.126C139.11,691.742 139.287,692.512 139.287,693.436C139.287,694.505 138.979,695.402 138.362,696.127C137.746,696.852 136.931,697.351 135.916,697.623L135.916,697.677C136.532,697.749 137.103,697.908 137.628,698.153C138.154,698.397 138.607,698.719 138.988,699.118C139.368,699.516 139.663,699.988 139.871,700.531C140.08,701.075 140.184,701.682 140.184,702.353C140.184,703.277 139.993,704.083 139.613,704.772C139.232,705.461 138.716,706.027 138.063,706.471C137.411,706.915 136.645,707.25 135.766,707.477C134.887,707.703 133.95,707.817 132.953,707.817C132.953,707.817 128.133,707.817 126.902,707.817C126.746,707.816 126.619,707.69 126.619,707.533C126.619,705.337 126.619,691.05 126.619,688.853ZM129.31,696.698L132.817,696.698C133.324,696.698 133.809,696.639 134.271,696.522C134.733,696.404 135.137,696.223 135.481,695.978C135.825,695.733 136.097,695.425 136.296,695.054C136.496,694.682 136.595,694.234 136.595,693.708C136.595,692.675 136.215,691.937 135.454,691.493C134.693,691.049 133.669,690.827 132.382,690.827L129.31,690.827L129.31,696.698ZM129.31,705.533L132.681,705.533C133.243,705.533 133.809,705.483 134.38,705.384C134.951,705.284 135.467,705.107 135.929,704.853C136.392,704.6 136.763,704.26 137.044,703.834C137.325,703.408 137.465,702.869 137.465,702.217C137.465,701.075 137.076,700.25 136.296,699.743C135.517,699.235 134.394,698.982 132.926,698.982L129.31,698.982L129.31,705.533Z" style="fill:rgb(236,239,244);fill-rule:nonzero;"/>
            <path d="M151.945,707.817C151.92,707.816 151.897,707.798 151.891,707.773C151.536,707.561 148.443,708.17 147.551,708.17C146.717,708.17 145.997,708.034 145.39,707.762C144.782,707.49 144.284,707.114 143.894,706.634C143.505,706.154 143.215,705.596 143.025,704.962C142.834,704.328 142.739,703.648 142.739,702.923C142.739,702.923 142.739,696.636 142.739,695.214C142.739,695.139 142.769,695.067 142.822,695.014C142.875,694.961 142.947,694.931 143.022,694.931C143.514,694.931 144.52,694.931 145.011,694.931C145.168,694.931 145.294,695.058 145.294,695.214C145.294,696.538 145.294,702.054 145.294,702.054C145.294,702.579 145.335,703.082 145.417,703.562C145.498,704.042 145.648,704.464 145.865,704.826C146.083,705.189 146.382,705.479 146.762,705.696C147.143,705.914 147.632,706.022 148.23,706.022C149.263,706.022 150.097,705.637 150.731,704.867C151.365,704.097 151.683,703.068 151.683,701.782C151.683,701.782 151.683,696.507 151.683,695.214C151.683,695.139 151.712,695.067 151.766,695.014C151.819,694.961 151.891,694.931 151.966,694.931C152.457,694.931 153.463,694.931 153.955,694.931C154.111,694.931 154.238,695.058 154.238,695.214C154.238,696.853 154.238,705.044 154.238,705.044C154.238,705.388 154.247,705.832 154.265,706.376C154.279,706.792 154.298,707.171 154.323,707.512C154.328,707.591 154.301,707.668 154.248,707.726C154.194,707.784 154.119,707.816 154.04,707.816C153.432,707.817 152.115,707.817 151.945,707.817Z" style="fill:rgb(236,239,244);fill-rule:nonzero;"/>
            <path d="M166.835,698.009C166.776,698.056 166.701,698.078 166.626,698.07C166.551,698.061 166.482,698.023 166.435,697.964C166.175,697.646 165.824,697.374 165.383,697.147C164.84,696.866 164.26,696.725 163.644,696.725C162.973,696.725 162.379,696.852 161.863,697.106C161.346,697.36 160.907,697.7 160.545,698.125C160.182,698.551 159.906,699.045 159.715,699.607C159.525,700.169 159.43,700.758 159.43,701.374C159.43,701.99 159.525,702.579 159.715,703.141C159.906,703.703 160.182,704.197 160.545,704.622C160.907,705.048 161.351,705.388 161.877,705.642C162.402,705.896 163,706.022 163.671,706.022C164.323,706.022 164.917,705.896 165.451,705.642C165.895,705.431 166.273,705.158 166.586,704.823C166.69,704.708 166.868,704.7 166.983,704.804C167.315,705.102 167.945,705.672 168.273,705.969C168.329,706.02 168.363,706.091 168.366,706.167C168.369,706.243 168.342,706.317 168.29,706.373C167.78,706.904 167.165,707.327 166.443,707.64C165.628,707.993 164.704,708.17 163.671,708.17C162.674,708.17 161.754,708.007 160.912,707.681C160.069,707.354 159.339,706.897 158.723,706.308C158.107,705.719 157.622,705.007 157.269,704.174C156.916,703.34 156.739,702.407 156.739,701.374C156.739,700.359 156.911,699.435 157.255,698.601C157.6,697.767 158.08,697.052 158.696,696.454C159.312,695.856 160.042,695.393 160.884,695.067C161.727,694.741 162.638,694.578 163.616,694.578C164.522,694.578 165.424,694.759 166.321,695.122C167.118,695.444 167.768,695.894 168.272,696.474C168.321,696.532 168.345,696.607 168.338,696.682C168.331,696.758 168.293,696.828 168.234,696.875C167.882,697.162 167.193,697.719 166.835,698.009Z" style="fill:rgb(236,239,244);fill-rule:nonzero;"/>
            <path d="M172.533,700.531L172.614,700.531C172.614,700.531 177.257,695.725 177.94,695.018C177.994,694.962 178.067,694.931 178.144,694.931C178.552,694.931 179.907,694.931 180.75,694.931C180.865,694.931 180.969,695.001 181.012,695.108C181.055,695.215 181.029,695.338 180.947,695.418C179.498,696.821 175.414,700.776 175.414,700.776C175.414,700.776 180.05,705.758 181.523,707.34C181.599,707.423 181.62,707.543 181.575,707.646C181.53,707.75 181.428,707.817 181.315,707.817C180.456,707.817 179,707.817 178.561,707.817C178.479,707.817 178.401,707.781 178.347,707.719C177.631,706.896 172.614,701.129 172.614,701.129L172.533,701.129C172.533,701.129 172.533,706.26 172.533,707.533C172.533,707.608 172.503,707.68 172.45,707.734C172.397,707.787 172.325,707.817 172.25,707.817C171.758,707.817 170.752,707.817 170.261,707.817C170.185,707.817 170.113,707.787 170.06,707.734C170.007,707.68 169.977,707.608 169.977,707.533C169.977,705.247 169.977,689.835 169.977,687.549C169.977,687.474 170.007,687.401 170.06,687.348C170.113,687.295 170.185,687.265 170.261,687.265C170.752,687.265 171.758,687.265 172.25,687.265C172.406,687.265 172.533,687.392 172.533,687.549C172.533,689.471 172.533,700.531 172.533,700.531Z" style="fill:rgb(236,239,244);fill-rule:nonzero;"/>
            <path d="M192.105,700.232C192.087,699.725 192.001,699.249 191.847,698.805C191.693,698.361 191.466,697.976 191.167,697.65C190.868,697.323 190.497,697.065 190.053,696.875C189.609,696.685 189.088,696.59 188.49,696.59C187.946,696.59 187.434,696.685 186.954,696.875C186.474,697.065 186.057,697.323 185.703,697.65C185.35,697.976 185.06,698.361 184.833,698.805C184.607,699.249 184.475,699.725 184.439,700.232L192.105,700.232ZM194.688,701.265C194.688,701.41 194.688,701.555 194.688,701.7C194.688,701.755 194.686,701.81 194.684,701.865C194.677,702.016 194.552,702.135 194.401,702.135C192.81,702.135 184.439,702.135 184.439,702.135C184.457,702.679 184.58,703.191 184.806,703.671C185.033,704.151 185.336,704.568 185.717,704.921C186.097,705.275 186.537,705.551 187.035,705.751C187.534,705.95 188.064,706.05 188.626,706.05C189.495,706.05 190.248,705.859 190.882,705.479C191.422,705.155 191.863,704.772 192.206,704.329C192.252,704.268 192.321,704.229 192.397,704.219C192.472,704.21 192.549,704.232 192.608,704.279C192.957,704.558 193.612,705.084 193.953,705.358C194.012,705.405 194.049,705.474 194.057,705.549C194.065,705.624 194.043,705.699 193.996,705.757C193.345,706.549 192.593,707.141 191.738,707.531C190.805,707.957 189.767,708.17 188.626,708.17C187.647,708.17 186.741,708.007 185.907,707.681C185.074,707.354 184.358,706.897 183.76,706.308C183.162,705.719 182.69,705.007 182.346,704.174C182.002,703.34 181.83,702.416 181.83,701.401C181.83,700.404 181.997,699.485 182.332,698.642C182.668,697.799 183.134,697.079 183.732,696.481C184.331,695.883 185.037,695.416 185.853,695.081C186.668,694.746 187.547,694.578 188.49,694.578C189.432,694.578 190.288,694.732 191.059,695.04C191.829,695.348 192.481,695.792 193.016,696.372C193.55,696.952 193.963,697.654 194.253,698.479C194.543,699.303 194.688,700.232 194.688,701.265Z" style="fill:rgb(236,239,244);fill-rule:nonzero;"/>
            <path d="M203.468,696.741C203.468,696.816 203.438,696.888 203.385,696.942C203.332,696.995 203.26,697.024 203.185,697.024C202.364,697.024 200.043,697.024 200.043,697.024L200.043,703.739C200.043,704.518 200.188,705.075 200.478,705.411C200.768,705.746 201.23,705.914 201.864,705.914C202.1,705.914 202.353,705.886 202.625,705.832C202.757,705.806 202.883,705.773 203.002,705.734C203.087,705.705 203.179,705.718 203.252,705.769C203.325,705.819 203.37,705.901 203.374,705.99C203.392,706.431 203.419,707.121 203.433,707.468C203.438,707.596 203.357,707.711 203.235,707.749C202.983,707.826 202.712,707.889 202.421,707.939C202.05,708.002 201.665,708.034 201.266,708.034C200.052,708.034 199.123,707.699 198.48,707.028C197.836,706.358 197.515,705.352 197.515,704.011L197.515,697.024C197.515,697.024 195.974,697.024 195.324,697.024C195.249,697.024 195.177,696.995 195.124,696.942C195.071,696.888 195.041,696.816 195.041,696.741C195.041,696.341 195.041,695.615 195.041,695.214C195.041,695.139 195.071,695.067 195.124,695.014C195.177,694.961 195.249,694.931 195.324,694.931C195.974,694.931 197.515,694.931 197.515,694.931C197.515,694.931 197.515,692.382 197.515,691.517C197.515,691.361 197.642,691.234 197.798,691.234C198.284,691.234 199.273,691.234 199.76,691.234C199.916,691.234 200.043,691.361 200.043,691.517C200.043,692.382 200.043,694.931 200.043,694.931C200.043,694.931 202.364,694.931 203.185,694.931C203.26,694.931 203.332,694.961 203.385,695.014C203.438,695.067 203.468,695.139 203.468,695.214C203.468,695.615 203.468,696.341 203.468,696.741Z" style="fill:rgb(236,239,244);fill-rule:nonzero;"/>
            <path d="M213.553,705.424C213.553,705.424 220.375,705.424 221.86,705.424C221.935,705.424 222.007,705.454 222.06,705.507C222.114,705.56 222.143,705.632 222.143,705.707C222.143,706.168 222.143,707.073 222.143,707.533C222.143,707.608 222.114,707.68 222.06,707.734C222.007,707.787 221.935,707.816 221.86,707.817C220.295,707.817 212.711,707.817 211.145,707.817C210.989,707.816 210.862,707.69 210.862,707.533C210.862,705.337 210.862,691.05 210.862,688.853C210.862,688.697 210.989,688.57 211.145,688.57C211.662,688.57 212.753,688.57 213.27,688.57C213.426,688.57 213.553,688.697 213.553,688.853C213.553,691.061 213.553,705.424 213.553,705.424Z" style="fill:rgb(236,239,244);fill-rule:nonzero;"/>
            <path d="M226.656,707.533C226.656,707.608 226.626,707.68 226.573,707.734C226.52,707.787 226.448,707.817 226.373,707.817C225.881,707.817 224.875,707.817 224.384,707.817C224.309,707.817 224.237,707.787 224.184,707.734C224.13,707.68 224.101,707.608 224.101,707.533C224.101,705.826 224.101,696.922 224.101,695.214C224.101,695.139 224.13,695.067 224.184,695.014C224.237,694.961 224.309,694.931 224.384,694.931C224.875,694.931 225.881,694.931 226.373,694.931C226.448,694.931 226.52,694.961 226.573,695.014C226.626,695.067 226.656,695.139 226.656,695.214C226.656,696.922 226.656,705.826 226.656,707.533ZM227.091,690.283C227.091,690.754 226.923,691.144 226.588,691.452C226.253,691.76 225.849,691.914 225.378,691.914C224.907,691.914 224.508,691.755 224.182,691.438C223.856,691.121 223.693,690.736 223.693,690.283C223.693,689.812 223.856,689.417 224.182,689.1C224.508,688.783 224.907,688.625 225.378,688.625C225.849,688.625 226.253,688.783 226.588,689.1C226.923,689.417 227.091,689.812 227.091,690.283Z" style="fill:rgb(236,239,244);fill-rule:nonzero;"/>
            <path d="M237.496,697.992C237.436,698.043 237.358,698.066 237.28,698.057C237.202,698.047 237.131,698.006 237.085,697.943C236.814,697.584 236.463,697.282 236.034,697.038C235.509,696.739 234.92,696.59 234.267,696.59C233.977,696.59 233.688,696.621 233.398,696.685C233.108,696.748 232.849,696.848 232.623,696.984C232.396,697.12 232.215,697.292 232.079,697.5C231.943,697.709 231.875,697.967 231.875,698.275C231.875,698.819 232.12,699.222 232.609,699.485C233.099,699.747 233.832,699.988 234.811,700.205C235.427,700.35 235.998,700.522 236.524,700.721C237.049,700.921 237.507,701.17 237.896,701.469C238.286,701.768 238.59,702.126 238.807,702.543C239.025,702.96 239.133,703.449 239.133,704.011C239.133,704.772 238.988,705.415 238.698,705.941C238.408,706.466 238.023,706.897 237.543,707.232C237.063,707.567 236.515,707.807 235.898,707.952C235.282,708.097 234.648,708.17 233.996,708.17C233.017,708.17 232.061,707.98 231.128,707.599C230.284,707.255 229.57,706.748 228.985,706.078C228.936,706.021 228.912,705.947 228.918,705.872C228.924,705.797 228.959,705.728 229.016,705.679C229.361,705.385 230.039,704.808 230.395,704.505C230.454,704.455 230.53,704.432 230.607,704.44C230.684,704.447 230.754,704.486 230.801,704.547C231.125,704.952 231.542,705.298 232.052,705.587C232.659,705.932 233.325,706.104 234.05,706.104C234.376,706.104 234.689,706.072 234.988,706.009C235.287,705.945 235.559,705.841 235.803,705.696C236.048,705.551 236.243,705.361 236.388,705.125C236.533,704.89 236.605,704.591 236.605,704.228C236.605,703.63 236.32,703.186 235.749,702.896C235.178,702.606 234.34,702.334 233.234,702.081C232.8,701.972 232.36,701.841 231.916,701.687C231.472,701.532 231.069,701.32 230.706,701.048C230.344,700.776 230.049,700.436 229.823,700.028C229.596,699.621 229.483,699.118 229.483,698.52C229.483,697.831 229.624,697.237 229.904,696.739C230.185,696.241 230.552,695.833 231.005,695.516C231.458,695.199 231.975,694.963 232.555,694.809C233.135,694.655 233.733,694.578 234.349,694.578C235.273,694.578 236.166,694.759 237.027,695.122C237.794,695.445 238.407,695.898 238.865,696.481C238.956,696.6 238.938,696.77 238.823,696.867C238.496,697.146 237.846,697.695 237.496,697.992Z" style="fill:rgb(236,239,244);fill-rule:nonzero;"/>
            <path d="M248.131,696.741C248.131,696.816 248.101,696.888 248.048,696.942C247.995,696.995 247.923,697.024 247.848,697.024C247.028,697.024 244.706,697.024 244.706,697.024L244.706,703.739C244.706,704.518 244.851,705.075 245.141,705.411C245.431,705.746 245.893,705.914 246.527,705.914C246.763,705.914 247.017,705.886 247.289,705.832C247.421,705.806 247.546,705.773 247.666,705.734C247.75,705.705 247.842,705.718 247.915,705.769C247.989,705.819 248.034,705.901 248.037,705.99C248.055,706.431 248.082,707.121 248.096,707.468C248.101,707.596 248.02,707.711 247.898,707.749C247.646,707.826 247.375,707.889 247.085,707.939C246.713,708.002 246.328,708.034 245.929,708.034C244.715,708.034 243.786,707.699 243.143,707.028C242.5,706.358 242.178,705.352 242.178,704.011L242.178,697.024C242.178,697.024 240.637,697.024 239.987,697.024C239.912,697.024 239.84,696.995 239.787,696.942C239.734,696.888 239.704,696.816 239.704,696.741C239.704,696.341 239.704,695.615 239.704,695.214C239.704,695.139 239.734,695.067 239.787,695.014C239.84,694.961 239.912,694.931 239.987,694.931C240.637,694.931 242.178,694.931 242.178,694.931C242.178,694.931 242.178,692.382 242.178,691.517C242.178,691.361 242.305,691.234 242.461,691.234C242.948,691.234 243.936,691.234 244.423,691.234C244.579,691.234 244.706,691.361 244.706,691.517C244.706,692.382 244.706,694.931 244.706,694.931C244.706,694.931 247.028,694.931 247.848,694.931C247.923,694.931 247.995,694.961 248.048,695.014C248.101,695.067 248.131,695.139 248.131,695.214C248.131,695.615 248.131,696.341 248.131,696.741Z" style="fill:rgb(236,239,244);fill-rule:nonzero;"/>
            <path d="M256.129,694.931C256.255,694.931 256.365,695.014 256.401,695.134C256.816,696.54 259.249,704.772 259.249,704.772L259.304,704.772C259.304,704.772 261.879,696.524 262.314,695.13C262.351,695.012 262.46,694.931 262.584,694.931C263.086,694.931 264.359,694.931 264.86,694.931C264.983,694.931 265.092,695.011 265.13,695.129C265.571,696.518 268.193,704.772 268.193,704.772L268.247,704.772C268.247,704.772 270.681,696.54 271.096,695.134C271.132,695.014 271.242,694.931 271.368,694.931C271.818,694.931 272.878,694.931 273.455,694.931C273.546,694.931 273.632,694.975 273.685,695.049C273.738,695.122 273.753,695.217 273.724,695.304C273.08,697.246 270.119,706.189 269.644,707.622C269.605,707.738 269.497,707.817 269.375,707.817C268.879,707.817 267.617,707.817 267.12,707.817C266.998,707.816 266.89,707.738 266.851,707.622C266.402,706.254 263.735,698.139 263.735,698.139L263.68,698.139C263.68,698.139 261.037,706.251 260.591,707.621C260.553,707.738 260.444,707.816 260.322,707.817C259.825,707.817 258.563,707.817 258.067,707.817C257.945,707.817 257.837,707.739 257.799,707.623C257.321,706.191 254.34,697.248 253.692,695.304C253.663,695.218 253.678,695.123 253.731,695.049C253.784,694.975 253.87,694.931 253.961,694.931C254.556,694.931 255.666,694.931 256.129,694.931Z" style="fill:rgb(236,239,244);fill-rule:nonzero;"/>
            <path d="M277.898,707.533C277.898,707.608 277.868,707.68 277.815,707.734C277.762,707.787 277.69,707.817 277.615,707.817C277.123,707.817 276.117,707.817 275.626,707.817C275.55,707.817 275.478,707.787 275.425,707.734C275.372,707.68 275.342,707.608 275.342,707.533C275.342,705.826 275.342,696.922 275.342,695.214C275.342,695.139 275.372,695.067 275.425,695.014C275.478,694.961 275.55,694.931 275.626,694.931C276.117,694.931 277.123,694.931 277.615,694.931C277.69,694.931 277.762,694.961 277.815,695.014C277.868,695.067 277.898,695.139 277.898,695.214C277.898,696.922 277.898,705.826 277.898,707.533ZM278.333,690.283C278.333,690.754 278.165,691.144 277.83,691.452C277.494,691.76 277.091,691.914 276.62,691.914C276.149,691.914 275.75,691.755 275.424,691.438C275.098,691.121 274.935,690.736 274.935,690.283C274.935,689.812 275.098,689.417 275.424,689.1C275.75,688.783 276.149,688.625 276.62,688.625C277.091,688.625 277.494,688.783 277.83,689.1C278.165,689.417 278.333,689.812 278.333,690.283Z" style="fill:rgb(236,239,244);fill-rule:nonzero;"/>
            <path d="M288.119,696.741C288.119,696.816 288.089,696.888 288.036,696.942C287.983,696.995 287.911,697.024 287.836,697.024C287.015,697.024 284.694,697.024 284.694,697.024L284.694,703.739C284.694,704.518 284.839,705.075 285.129,705.411C285.419,705.746 285.881,705.914 286.515,705.914C286.751,705.914 287.004,705.886 287.276,705.832C287.408,705.806 287.534,705.773 287.653,705.734C287.737,705.705 287.83,705.718 287.903,705.769C287.976,705.819 288.021,705.901 288.025,705.99C288.043,706.431 288.07,707.121 288.083,707.468C288.089,707.596 288.007,707.711 287.885,707.749C287.634,707.826 287.363,707.889 287.072,707.939C286.701,708.002 286.316,708.034 285.917,708.034C284.703,708.034 283.774,707.699 283.131,707.028C282.487,706.358 282.166,705.352 282.166,704.011L282.166,697.024C282.166,697.024 280.624,697.024 279.975,697.024C279.9,697.024 279.828,696.995 279.775,696.942C279.722,696.888 279.692,696.816 279.692,696.741C279.692,696.341 279.692,695.615 279.692,695.214C279.692,695.139 279.722,695.067 279.775,695.014C279.828,694.961 279.9,694.931 279.975,694.931C280.624,694.931 282.166,694.931 282.166,694.931C282.166,694.931 282.166,692.382 282.166,691.517C282.166,691.361 282.292,691.234 282.449,691.234C282.935,691.234 283.924,691.234 284.411,691.234C284.567,691.234 284.694,691.361 284.694,691.517C284.694,692.382 284.694,694.931 284.694,694.931C284.694,694.931 287.015,694.931 287.836,694.931C287.911,694.931 287.983,694.961 288.036,695.014C288.089,695.067 288.119,695.139 288.119,695.214C288.119,695.615 288.119,696.341 288.119,696.741Z" style="fill:rgb(236,239,244);fill-rule:nonzero;"/>
            <path d="M292.876,696.889C293.184,696.254 293.71,695.711 294.453,695.258C295.196,694.804 296.029,694.578 296.954,694.578C297.787,694.578 298.503,694.718 299.101,694.999C299.699,695.28 300.198,695.656 300.596,696.127C300.995,696.599 301.289,697.151 301.48,697.786C301.67,698.42 301.765,699.1 301.765,699.824C301.765,699.824 301.765,706.112 301.765,707.533C301.765,707.608 301.735,707.68 301.682,707.734C301.629,707.787 301.557,707.817 301.482,707.817C300.99,707.817 299.985,707.817 299.493,707.817C299.337,707.817 299.21,707.69 299.21,707.533C299.21,706.209 299.21,700.694 299.21,700.694C299.21,700.169 299.169,699.67 299.088,699.199C299.006,698.728 298.857,698.311 298.639,697.949C298.422,697.586 298.127,697.296 297.756,697.079C297.384,696.861 296.899,696.753 296.301,696.753C295.286,696.753 294.453,697.138 293.8,697.908C293.148,698.678 292.822,699.707 292.822,700.993C292.822,700.993 292.822,706.244 292.822,707.533C292.822,707.608 292.792,707.68 292.739,707.734C292.686,707.787 292.614,707.817 292.539,707.817C292.047,707.817 291.041,707.817 290.55,707.817C290.474,707.817 290.402,707.787 290.349,707.734C290.296,707.68 290.266,707.608 290.266,707.533C290.266,705.247 290.266,689.835 290.266,687.549C290.266,687.474 290.296,687.401 290.349,687.348C290.402,687.295 290.474,687.265 290.55,687.265C291.042,687.265 292.049,687.265 292.54,687.265C292.696,687.265 292.822,687.391 292.823,687.547C292.832,689.134 292.876,696.889 292.876,696.889Z" style="fill:rgb(236,239,244);fill-rule:nonzero;"/>
            <path d="M313.536,697.052L313.59,697.052C313.59,697.052 321.216,689.522 322.098,688.652C322.151,688.6 322.222,688.57 322.297,688.57C322.729,688.57 324.268,688.57 325.191,688.57C325.307,688.57 325.411,688.641 325.454,688.749C325.497,688.857 325.47,688.98 325.385,689.06C323.42,690.91 316.553,697.378 316.553,697.378C316.553,697.378 324.076,705.292 326.021,707.338C326.099,707.42 326.12,707.541 326.076,707.645C326.031,707.749 325.929,707.817 325.816,707.817C324.875,707.817 323.209,707.817 322.741,707.817C322.661,707.817 322.585,707.783 322.531,707.724C321.618,706.717 313.59,697.867 313.59,697.867L313.536,697.867C313.536,697.867 313.536,705.911 313.536,707.533C313.536,707.608 313.506,707.68 313.453,707.734C313.4,707.787 313.328,707.817 313.253,707.817C312.736,707.817 311.645,707.817 311.128,707.817C310.971,707.817 310.845,707.69 310.845,707.533C310.845,705.337 310.845,691.05 310.845,688.853C310.845,688.697 310.971,688.57 311.128,688.57C311.645,688.57 312.736,688.57 313.253,688.57C313.328,688.57 313.4,688.6 313.453,688.653C313.506,688.706 313.536,688.778 313.536,688.853C313.536,690.327 313.536,697.052 313.536,697.052Z" style="fill:rgb(236,239,244);fill-rule:nonzero;"/>
            <path d="M330.118,707.533C330.118,707.608 330.088,707.68 330.035,707.734C329.982,707.787 329.91,707.817 329.835,707.817C329.343,707.817 328.338,707.817 327.846,707.817C327.771,707.817 327.699,707.787 327.646,707.734C327.593,707.68 327.563,707.608 327.563,707.533C327.563,705.826 327.563,696.922 327.563,695.214C327.563,695.139 327.593,695.067 327.646,695.014C327.699,694.961 327.771,694.931 327.846,694.931C328.338,694.931 329.343,694.931 329.835,694.931C329.91,694.931 329.982,694.961 330.035,695.014C330.088,695.067 330.118,695.139 330.118,695.214C330.118,696.922 330.118,705.826 330.118,707.533ZM330.553,690.283C330.553,690.754 330.385,691.144 330.05,691.452C329.715,691.76 329.312,691.914 328.84,691.914C328.369,691.914 327.971,691.755 327.644,691.438C327.318,691.121 327.155,690.736 327.155,690.283C327.155,689.812 327.318,689.417 327.644,689.1C327.971,688.783 328.369,688.625 328.84,688.625C329.312,688.625 329.715,688.783 330.05,689.1C330.385,689.417 330.553,689.812 330.553,690.283Z" style="fill:rgb(236,239,244);fill-rule:nonzero;"/>
            <path d="M343.819,707.817C343.819,707.817 340.04,708.17 339.116,708.17C338.119,708.17 337.222,707.993 336.425,707.64C335.627,707.286 334.948,706.802 334.386,706.185C333.824,705.569 333.389,704.844 333.081,704.011C332.773,703.177 332.619,702.289 332.619,701.347C332.619,700.404 332.773,699.521 333.081,698.696C333.389,697.872 333.829,697.151 334.4,696.535C334.97,695.919 335.655,695.439 336.452,695.094C337.249,694.75 338.128,694.578 339.089,694.578C340.14,694.578 341.055,694.8 341.834,695.244C342.614,695.688 343.23,696.227 343.683,696.861L343.737,696.861C343.737,696.861 343.737,689.136 343.737,687.549C343.737,687.392 343.864,687.265 344.02,687.265C344.512,687.265 345.518,687.265 346.009,687.265C346.084,687.265 346.156,687.295 346.21,687.348C346.263,687.401 346.293,687.474 346.293,687.549C346.293,690.019 346.293,707.817 346.293,707.817L343.819,707.817ZM335.283,701.347C335.283,701.945 335.374,702.525 335.555,703.086C335.736,703.648 336.008,704.147 336.37,704.582C336.733,705.017 337.177,705.365 337.702,705.628C338.228,705.891 338.844,706.022 339.551,706.022C340.203,706.022 340.797,705.896 341.331,705.642C341.866,705.388 342.324,705.048 342.704,704.622C343.085,704.197 343.379,703.703 343.588,703.141C343.796,702.579 343.9,701.99 343.9,701.374C343.9,700.758 343.796,700.169 343.588,699.607C343.379,699.045 343.085,698.547 342.704,698.112C342.324,697.677 341.866,697.333 341.331,697.079C340.797,696.825 340.203,696.698 339.551,696.698C338.844,696.698 338.228,696.825 337.702,697.079C337.177,697.333 336.733,697.677 336.37,698.112C336.008,698.547 335.736,699.045 335.555,699.607C335.374,700.169 335.283,700.749 335.283,701.347Z" style="fill:rgb(236,239,244);fill-rule:nonzero;"/>
            <path d="M356.86,697.992C356.8,698.043 356.722,698.066 356.644,698.057C356.567,698.047 356.496,698.006 356.45,697.943C356.179,697.584 355.828,697.282 355.399,697.038C354.874,696.739 354.285,696.59 353.632,696.59C353.342,696.59 353.052,696.621 352.762,696.685C352.472,696.748 352.214,696.848 351.988,696.984C351.761,697.12 351.58,697.292 351.444,697.5C351.308,697.709 351.24,697.967 351.24,698.275C351.24,698.819 351.485,699.222 351.974,699.485C352.463,699.747 353.197,699.988 354.176,700.205C354.792,700.35 355.363,700.522 355.888,700.721C356.414,700.921 356.872,701.17 357.261,701.469C357.651,701.768 357.954,702.126 358.172,702.543C358.389,702.96 358.498,703.449 358.498,704.011C358.498,704.772 358.353,705.415 358.063,705.941C357.773,706.466 357.388,706.897 356.908,707.232C356.428,707.567 355.879,707.807 355.263,707.952C354.647,708.097 354.013,708.17 353.36,708.17C352.382,708.17 351.426,707.98 350.492,707.599C349.649,707.255 348.935,706.748 348.35,706.078C348.301,706.021 348.277,705.947 348.283,705.872C348.289,705.797 348.324,705.728 348.381,705.679C348.725,705.385 349.404,704.808 349.76,704.505C349.819,704.455 349.895,704.432 349.972,704.44C350.049,704.447 350.119,704.486 350.166,704.547C350.49,704.952 350.907,705.298 351.417,705.587C352.024,705.932 352.69,706.104 353.415,706.104C353.741,706.104 354.054,706.072 354.353,706.009C354.652,705.945 354.923,705.841 355.168,705.696C355.413,705.551 355.608,705.361 355.753,705.125C355.898,704.89 355.97,704.591 355.97,704.228C355.97,703.63 355.685,703.186 355.114,702.896C354.543,702.606 353.705,702.334 352.599,702.081C352.164,701.972 351.725,701.841 351.281,701.687C350.837,701.532 350.434,701.32 350.071,701.048C349.709,700.776 349.414,700.436 349.188,700.028C348.961,699.621 348.848,699.118 348.848,698.52C348.848,697.831 348.988,697.237 349.269,696.739C349.55,696.241 349.917,695.833 350.37,695.516C350.823,695.199 351.34,694.963 351.92,694.809C352.5,694.655 353.098,694.578 353.714,694.578C354.638,694.578 355.531,694.759 356.391,695.122C357.159,695.445 357.772,695.898 358.23,696.481C358.321,696.6 358.303,696.77 358.188,696.867C357.861,697.146 357.211,697.695 356.86,697.992Z" style="fill:rgb(236,239,244);fill-rule:nonzero;"/>
        </g>
        <g transform="matrix(0.651403,0,0,0.651403,74.937,241.148)">
            <path d="M951.276,567.776C951.366,567.403 951.236,567.012 950.94,566.768C950.644,566.525 950.235,566.471 949.887,566.631C932.12,569.42 801.839,568.774 781.456,566.341C781.135,566.286 780.807,566.392 780.577,566.624C780.348,566.857 780.247,567.186 780.306,567.507C785.265,594.552 790.724,614.48 796.718,634.964C802.173,653.611 808.071,672.718 814.438,698.073C814.543,698.494 814.908,698.799 815.342,698.828C849.793,701.09 884.283,700.714 918.803,698.278C919.237,698.248 919.601,697.94 919.704,697.517C922.061,687.831 947.818,581.985 951.276,567.776ZM940.887,580.37C917.716,618.652 894.153,627.884 870.188,629.098C844.176,630.416 817.689,620.495 790.714,580.423M792.442,580.423C790.719,580.423 789.141,581.385 788.351,582.916C787.561,584.447 787.691,586.291 788.689,587.696C816.427,626.669 843.689,646.025 870.489,644.667C895.148,643.418 919.416,624.633 943.304,587.462C944.213,586.045 944.276,584.246 943.469,582.769C942.662,581.292 941.112,580.374 939.429,580.375C911.507,580.381 821.069,580.413 792.442,580.423Z" style="fill:white;"/>
        </g>
    </g>
</svg>
