<?xml version="1.0" encoding="UTF-8" standalone="no"?>
<!DOCTYPE svg PUBLIC "-//W3C//DTD SVG 1.1//EN" "http://www.w3.org/Graphics/SVG/1.1/DTD/svg11.dtd">
<svg width="100%" height="100%" viewBox="0 0 465 364" version="1.1" xmlns="http://www.w3.org/2000/svg" xmlns:xlink="http://www.w3.org/1999/xlink" xml:space="preserve" xmlns:serif="http://www.serif.com/" style="fill-rule:evenodd;clip-rule:evenodd;stroke-linejoin:round;stroke-miterlimit:1.41421;">
    <g transform="matrix(1,0,0,1,-0.000298826,0)">
        <path d="M464.088,3.932C464.333,2.922 463.979,1.86 463.176,1.198C462.373,0.537 461.263,0.392 460.318,0.826C412.095,8.396 58.489,6.642 3.167,0.038C2.294,-0.11 1.404,0.177 0.782,0.807C0.16,1.438 -0.115,2.332 0.045,3.203C13.505,76.608 28.323,130.696 44.59,186.294C59.397,236.904 75.405,288.764 92.684,357.583C92.971,358.726 93.962,359.554 95.138,359.631C188.646,365.77 282.258,364.751 375.951,358.14C377.129,358.057 378.118,357.222 378.397,356.074C384.794,329.785 454.703,42.498 464.088,3.932ZM435.889,38.117C373,142.019 309.047,167.076 244.002,170.371C173.399,173.948 101.508,147.023 28.294,38.26M32.985,38.259C28.309,38.26 24.024,40.871 21.88,45.027C19.735,49.182 20.09,54.187 22.799,57.999C98.085,163.78 172.077,216.314 244.818,212.629C311.746,209.238 377.615,158.253 442.451,57.363C444.918,53.519 445.09,48.634 442.898,44.626C440.707,40.618 436.503,38.126 431.935,38.128C356.148,38.145 110.684,38.231 32.985,38.259Z" style="fill:rgb(255,102,0);fill-opacity:0.898039;"/>
    </g>
</svg>
